<svg width="74" height="74" viewBox="0 0 74 74" fill="none" xmlns="http://www.w3.org/2000/svg">
<path fill-rule="evenodd" clip-rule="evenodd" d="M36.9687 0.12529C16.8174 0.12529 0.434814 16.5078 0.434814 36.6591C0.434814 56.8104 16.8174 73.193 36.9687 73.193C57.1201 73.193 73.5027 56.8104 73.5027 36.6591C73.5027 16.5078 57.1201 0.12529 36.9687 0.12529ZM60.1966 54.9645L50.4286 45.1965C49.8902 47.0424 48.6596 49.5037 46.3522 50.965L55.2742 59.887C50.1979 63.8865 43.891 66.2708 36.9687 66.2708C20.6631 66.2708 7.35703 52.9648 7.35703 36.6591C7.35703 29.7369 9.74135 23.43 13.7409 18.3538L23.7396 28.3525C23.432 27.5834 23.2781 26.8142 23.1243 26.2758C22.7397 24.5068 23.8934 22.7378 25.6625 22.2763C26.047 22.1994 26.5854 22.0456 27.2007 21.9687L18.6633 13.4313C23.7396 9.43181 30.0465 7.04749 36.9687 7.04749C53.2744 7.04749 66.5805 20.3535 66.5805 36.6591C66.5805 43.5813 64.1961 49.8882 60.1966 54.9645Z" fill="white"/>
<path d="M38.1225 31.8134C39.5838 32.198 42.6604 32.6594 44.9678 31.275C47.2752 29.8906 48.1212 27.1217 48.4289 25.6603C48.5058 25.1988 48.1982 24.7374 47.7367 24.5835C46.1984 24.3528 43.1218 23.8913 40.8145 25.1988C39.3531 26.0449 38.4301 27.5832 37.9686 28.8907V25.7372C39.1224 24.5835 40.8145 22.43 40.8145 19.9687C40.8145 17.4306 38.8916 15.1232 37.8148 14.0464C37.3533 13.5849 36.6611 13.5849 36.1996 14.0464C35.0459 15.2001 33.1231 17.4306 33.1231 19.9687C33.1231 22.43 34.8152 24.5835 35.9689 25.7372V28.8907C35.4305 27.5832 34.5844 26.0449 33.1231 25.1988C30.8157 23.8144 27.7391 24.3528 26.2778 24.6604C25.8163 24.8143 25.5087 25.2758 25.5856 25.7372C25.8932 27.1217 26.7393 29.9675 29.0467 31.3519C31.3541 32.7363 34.4306 32.198 35.892 31.8903C35.9689 31.8903 35.9689 31.8903 36.0458 31.8134V37.7357C35.5074 36.4282 34.6614 34.8899 33.2 34.0439C30.8926 32.6594 27.8161 33.1978 26.3547 33.5055C25.8932 33.6593 25.5856 34.1208 25.6625 34.5823C25.9701 35.9667 26.8162 38.8125 29.1236 40.1969C31.431 41.5814 34.5075 41.043 35.9689 40.7353C36.0458 40.7353 36.0458 40.7353 36.1227 40.6584V46.5808C35.5843 45.2732 34.7383 43.735 33.2769 42.8889C30.9695 41.5045 27.893 42.0429 26.4316 42.3505C25.9701 42.5043 25.6625 42.9658 25.7394 43.4273C26.0471 44.8117 26.8931 47.6575 29.2005 49.042C31.5079 50.4264 34.5844 49.888 36.0458 49.5804C36.1227 49.5804 36.1227 49.5804 36.1996 49.5035V58.6562C36.1996 59.1946 36.6611 59.656 37.1995 59.656C37.7379 59.656 38.1994 59.1946 38.1994 58.6562V49.4266C38.2763 49.4266 38.2763 49.4266 38.3532 49.5035C39.8146 49.888 42.8911 50.3495 45.1985 48.9651C47.5059 47.5806 48.352 44.8117 48.6596 43.3504C48.7365 42.8889 48.4289 42.4274 47.9674 42.2736C46.1984 41.9659 43.1218 41.5045 40.8145 42.8889C39.3531 43.735 38.4301 45.2732 37.9686 46.5808V40.6584C38.0456 40.6584 38.0456 40.6584 38.1225 40.7353C39.5838 41.1199 42.6604 41.5814 44.9678 40.1969C47.2752 38.8125 48.1212 36.0436 48.4289 34.5823C48.5058 34.1208 48.1982 33.6593 47.7367 33.5055C46.1984 33.1978 43.1218 32.6594 40.8145 34.0439C39.3531 34.8899 38.4301 36.4282 37.9686 37.7357V31.8134H38.1225Z" fill="white"/>
</svg>
