<svg width="19" height="26" viewBox="0 0 19 26" fill="none" xmlns="http://www.w3.org/2000/svg">
<path fill-rule="evenodd" clip-rule="evenodd" d="M17.3758 0.945312C15.8689 0.945312 14.4592 5.91077 14.4592 11.2231C14.4592 14.8846 16.4036 16.362 16.4036 16.362V24.5842C16.4036 25.1495 16.8411 25.612 17.3758 25.612C17.9105 25.612 18.3481 25.1495 18.3481 24.5842V1.65192C18.3481 0.945312 17.6797 0.945312 17.3758 0.945312ZM11.5425 0.945312L12.1501 7.62588C12.1501 7.90852 11.9314 8.13976 11.664 8.13976C11.3966 8.13976 11.1779 7.90852 11.1779 7.62588L10.8133 0.945312H10.3272L9.96261 7.62588C9.96261 7.90852 9.74386 8.13976 9.47652 8.13976C9.20913 8.13976 8.99039 7.90852 8.99039 7.62588L9.59802 0.945312H9.11191C9.11191 0.945312 7.65359 7.83144 7.65359 9.16755C7.65359 10.5037 8.46783 11.6471 9.59802 12.071V24.5842C9.59802 25.1495 10.0355 25.612 10.5703 25.612C11.105 25.612 11.5425 25.1495 11.5425 24.5842V12.071C12.6727 11.6471 13.4869 10.5165 13.4869 9.16755C13.4869 7.81858 12.0286 0.945312 12.0286 0.945312H11.5425ZM3.7647 0.945312C2.15444 0.945312 0.848022 5.05643 0.848022 9.16755C0.848022 10.5037 1.66226 11.6471 2.79247 12.071V24.5842C2.79247 25.1495 3.22998 25.612 3.7647 25.612C4.29942 25.612 4.73691 25.1495 4.73691 24.5842V12.071C5.86712 11.6471 6.68138 10.5165 6.68138 9.16755C6.68138 5.05643 5.37494 0.945312 3.7647 0.945312Z" fill="white"/>
</svg>
