<svg width="25" height="23" viewBox="0 0 25 23" fill="none" xmlns="http://www.w3.org/2000/svg">
<path d="M22.4654 12.3934C21.2155 12.3271 20.1441 13.1234 19.7758 14.2128H17.6052L16.0204 9.49019C15.8977 9.12521 15.5573 8.88189 15.1723 8.88189H15.1555C14.7649 8.88742 14.4245 9.14733 14.3185 9.52337L11.8354 18.1115L8.91698 0.741717C8.85002 0.326966 8.4929 0.0172829 8.06881 0.000694926C7.64472 -0.0158931 7.27086 0.266137 7.16484 0.669826L4.20739 14.2128H0.892815C0.401765 14.2128 0 14.611 0 15.0976C0 15.5843 0.401765 15.9824 0.892815 15.9824H4.91048C5.31783 15.9824 5.68053 15.7059 5.77539 15.3133L7.86235 5.23761L10.7249 22.2645C10.7919 22.6737 11.1379 22.9779 11.5564 23H11.6066C12.0028 23 12.3543 22.7401 12.4659 22.3585L15.2392 12.7584L16.1153 15.3741C16.2381 15.7336 16.5784 15.9824 16.9635 15.9824H19.8149C20.1999 16.9778 21.1764 17.6967 22.3204 17.6967C23.827 17.6967 25.0434 16.4635 24.9988 14.9594C24.9542 13.5879 23.8437 12.4653 22.4654 12.3934Z" fill="#E91F64"/>
</svg>
