<svg width="24" height="25" viewBox="0 0 24 25" fill="none" xmlns="http://www.w3.org/2000/svg">
<path fill-rule="evenodd" clip-rule="evenodd" d="M11.6548 0.182129C5.28702 0.182129 0.127441 5.62013 0.127441 12.3315C0.127441 19.0428 5.28702 24.4808 11.6548 24.4808C18.0225 24.4808 23.1821 19.0428 23.1821 12.3315C23.1821 5.62013 18.0225 0.182129 11.6548 0.182129ZM15.645 9.0605C16.3821 9.0605 16.9751 9.68549 16.9751 10.4623C16.9751 11.2392 16.3821 11.8642 15.645 11.8642C14.9079 11.8642 14.3149 11.2392 14.3149 10.4623C14.3149 9.68549 14.9079 9.0605 15.645 9.0605ZM7.66454 9.0605C8.40162 9.0605 8.99461 9.68549 8.99461 10.4623C8.99461 11.2392 8.40162 11.8642 7.66454 11.8642C6.92745 11.8642 6.33447 11.2392 6.33447 10.4623C6.33447 9.68549 6.92745 9.0605 7.66454 9.0605ZM11.6548 18.9318C9.1775 18.9318 7.09372 17.1854 6.43423 14.8022C6.35109 14.5043 6.56169 14.2006 6.86095 14.2006H16.443C16.7368 14.2006 16.9529 14.4985 16.8698 14.8022C16.2158 17.1854 14.132 18.9318 11.6548 18.9318Z" fill="#F7F7F7"/>
</svg>
