<svg width="25" height="25" viewBox="0 0 25 25" fill="none" xmlns="http://www.w3.org/2000/svg">
<path fill-rule="evenodd" clip-rule="evenodd" d="M12.6613 0.181885C5.94998 0.181885 0.511993 5.61988 0.511993 12.3312C0.511993 19.0426 5.94998 24.4806 12.6613 24.4806C19.3727 24.4806 24.8107 19.0426 24.8107 12.3312C24.8107 5.61988 19.3727 0.181885 12.6613 0.181885ZM16.8669 9.06025C17.6437 9.06025 18.2687 9.68524 18.2687 10.4621C18.2687 11.239 17.6437 11.8639 16.8669 11.8639C16.09 11.8639 15.465 11.239 15.465 10.4621C15.465 9.68524 16.09 9.06025 16.8669 9.06025ZM8.45579 9.06025C9.23265 9.06025 9.85764 9.68524 9.85764 10.4621C9.85764 11.239 9.23265 11.8639 8.45579 11.8639C7.67893 11.8639 7.05395 11.239 7.05395 10.4621C7.05395 9.68524 7.67893 9.06025 8.45579 9.06025ZM12.6613 18.9316C10.0504 18.9316 7.85416 17.1851 7.15909 14.802C7.07146 14.5041 7.29343 14.2004 7.60884 14.2004H17.708C18.0175 14.2004 18.2453 14.4982 18.1577 14.802C17.4685 17.1851 15.2723 18.9316 12.6613 18.9316Z" fill="#F7F7F7"/>
</svg>
