<svg width="27" height="28" viewBox="0 0 27 28" fill="none" xmlns="http://www.w3.org/2000/svg">
<path fill-rule="evenodd" clip-rule="evenodd" d="M24.9576 17.6966C23.2631 16.6286 20.0647 17.6355 15.7211 20.605C12.9057 22.5302 10.8301 23.1056 9.71478 22.2721C8.08756 21.0582 8.39021 17.003 8.7844 14.6621H9.11881C9.34674 14.6621 9.53356 14.467 9.53356 14.2227V13.3577C10.6638 12.4375 14.9196 8.85712 15.51 6.55168C16.1844 3.93687 12.3863 2.25409 11.2803 1.82453C11.299 1.57428 11.1664 1.33389 10.9291 1.2531L10.5181 1.11122C10.2435 1.01664 9.9483 1.17625 9.85676 1.46788L9.61389 2.25212C9.52422 2.54178 9.67554 2.85706 9.95204 2.94967L10.3668 3.09154C10.5162 3.14277 10.6676 3.11322 10.7927 3.03637C12.179 3.56051 14.6413 4.92211 14.3125 6.20685C13.8678 7.93101 10.1781 11.1902 8.66297 12.4059H7.89513C6.38187 11.1882 2.69027 7.93101 2.2475 6.20685C1.92056 4.9359 4.33243 3.5881 5.72239 3.05016C5.85129 3.16051 6.01943 3.21568 6.18944 3.16445L6.60979 3.04425C6.88816 2.96346 7.05256 2.66001 6.9741 2.36444L6.76859 1.56837C6.69013 1.2728 6.40242 1.0994 6.12219 1.18216L5.70184 1.30039C5.47765 1.36541 5.33567 1.57428 5.32259 1.80483C4.28946 2.19892 0.358726 3.89352 1.04249 6.55168C1.61417 8.77239 5.58788 12.1793 6.88629 13.2473V14.2227C6.88629 14.467 7.07124 14.6621 7.30103 14.6621H7.51775C7.13476 17.005 6.71628 21.6435 8.99364 23.344C9.54664 23.7617 10.2005 23.9667 10.9571 23.9667C12.3901 23.9667 14.191 23.2159 16.3993 21.7085C21.9572 17.9094 23.8684 18.5439 24.3224 18.8277C24.6718 19.0444 24.8268 19.4287 24.7876 19.9627C24.7315 20.7114 24.257 21.6632 23.4649 22.2819C22.9997 21.6435 22.2674 21.2277 21.4472 21.2277C20.0442 21.2277 18.9064 22.4317 18.9064 23.9095C18.9064 25.3874 20.0442 26.5913 21.4472 26.5913C22.8502 26.5913 23.9899 25.3874 23.9899 23.9095C23.9899 23.7775 23.9768 23.6474 23.96 23.5194C25.0958 22.743 25.9272 21.3991 26.0262 20.0651C26.1028 19.0346 25.7124 18.1695 24.9576 17.6966ZM21.4453 25.279C20.7298 25.279 20.1488 24.6622 20.1488 23.9095C20.1488 23.1568 20.7317 22.542 21.4453 22.542C21.8489 22.542 22.202 22.741 22.4411 23.0445C22.7026 23.2711 22.6391 23.541 22.7381 23.8938L22.7438 23.9115C22.7456 24.6622 22.1627 25.279 21.4453 25.279Z" fill="white"/>
<path d="M24.9576 17.6966L24.691 18.1196L24.6921 18.1203L24.9576 17.6966ZM15.7211 20.605L15.4389 20.1923L15.4389 20.1923L15.7211 20.605ZM9.71478 22.2721L10.0141 21.8715L10.0137 21.8713L9.71478 22.2721ZM8.7844 14.6621V14.1621H8.36156L8.29134 14.5791L8.7844 14.6621ZM9.53356 13.3577L9.21788 12.9699L9.03356 13.12V13.3577H9.53356ZM15.51 6.55168L15.0258 6.4268L15.0256 6.42765L15.51 6.55168ZM11.2803 1.82453L10.7817 1.78731L10.7542 2.15656L11.0993 2.29061L11.2803 1.82453ZM10.9291 1.2531L10.766 1.72574L10.768 1.72641L10.9291 1.2531ZM10.5181 1.11122L10.6813 0.63859L10.6809 0.638476L10.5181 1.11122ZM9.85676 1.46788L9.37971 1.31813L9.37914 1.31997L9.85676 1.46788ZM9.61389 2.25212L9.13627 2.10421L9.13626 2.10425L9.61389 2.25212ZM9.95204 2.94967L10.1139 2.47657L10.1108 2.47556L9.95204 2.94967ZM10.3668 3.09154L10.5289 2.61856L10.5286 2.61846L10.3668 3.09154ZM10.7927 3.03637L10.9696 2.56868L10.7402 2.48194L10.5311 2.61027L10.7927 3.03637ZM14.3125 6.20685L14.7966 6.33171L14.7969 6.33082L14.3125 6.20685ZM8.66297 12.4059V12.9059H8.83877L8.97589 12.7959L8.66297 12.4059ZM7.89513 12.4059L7.58166 12.7955L7.71893 12.9059H7.89513V12.4059ZM2.2475 6.20685L2.73178 6.08248L2.73173 6.08228L2.2475 6.20685ZM5.72239 3.05016L6.04754 2.67032L5.82056 2.47603L5.54192 2.58387L5.72239 3.05016ZM6.18944 3.16445L6.05196 2.68367L6.04518 2.68571L6.18944 3.16445ZM6.60979 3.04425L6.74726 3.52499L6.74916 3.52444L6.60979 3.04425ZM6.9741 2.36444L6.48996 2.48942L6.49084 2.49273L6.9741 2.36444ZM6.76859 1.56837L7.25273 1.44339L7.25185 1.44008L6.76859 1.56837ZM6.12219 1.18216L6.25758 1.66353L6.2638 1.66169L6.12219 1.18216ZM5.70184 1.30039L5.56646 0.819049L5.56255 0.820181L5.70184 1.30039ZM5.32259 1.80483L5.50079 2.27199L5.80344 2.15655L5.82179 1.83315L5.32259 1.80483ZM1.04249 6.55168L0.558259 6.67624L0.558282 6.67633L1.04249 6.55168ZM6.88629 13.2473H7.38629V13.0112L7.20392 12.8612L6.88629 13.2473ZM7.51775 14.6621L8.0112 14.7428L8.10612 14.1621H7.51775V14.6621ZM8.99364 23.344L9.29503 22.945L9.2928 22.9434L8.99364 23.344ZM16.3993 21.7085L16.6812 22.1215L16.6814 22.1213L16.3993 21.7085ZM24.3224 18.8277L24.0574 19.2517L24.0588 19.2525L24.3224 18.8277ZM24.7876 19.9627L25.2862 20L25.2862 19.9993L24.7876 19.9627ZM23.4649 22.2819L23.0608 22.5764L23.3652 22.9942L23.7727 22.6759L23.4649 22.2819ZM23.96 23.5194L23.6778 23.1066L23.4242 23.2799L23.4642 23.5844L23.96 23.5194ZM26.0262 20.0651L25.5276 20.0281L25.5276 20.0281L26.0262 20.0651ZM22.4411 23.0445L22.0484 23.354L22.0778 23.3913L22.1137 23.4224L22.4411 23.0445ZM22.7381 23.8938L22.2568 24.0289L22.2589 24.0367L22.2614 24.0444L22.7381 23.8938ZM22.7438 23.9115L23.2437 23.9102L23.2436 23.8337L23.2205 23.7608L22.7438 23.9115ZM25.2242 17.2736C24.1911 16.6225 22.7882 16.6543 21.1826 17.1599C19.5621 17.6701 17.6304 18.6941 15.4389 20.1923L16.0033 21.0178C18.1555 19.5465 19.9948 18.5823 21.4829 18.1137C22.986 17.6404 24.0296 17.7028 24.691 18.1196L25.2242 17.2736ZM15.4389 20.1923C14.0526 21.1402 12.8818 21.7318 11.9467 21.9912C11.0053 22.2524 10.3936 22.1551 10.0141 21.8715L9.41546 22.6726C10.1513 23.2225 11.135 23.2542 12.2141 22.9548C13.2995 22.6537 14.5742 21.995 16.0033 21.0178L15.4389 20.1923ZM10.0137 21.8713C9.71957 21.6518 9.47874 21.2769 9.3022 20.7431C9.12676 20.2127 9.02871 19.5668 8.99084 18.8629C8.9151 17.4555 9.08358 15.8965 9.27746 14.7451L8.29134 14.5791C8.09102 15.7687 7.91108 17.4077 7.99228 18.9166C8.03287 19.6709 8.13962 20.4127 8.35278 21.0571C8.56483 21.6983 8.89637 22.2854 9.41582 22.6728L10.0137 21.8713ZM8.7844 15.1621H9.11881V14.1621H8.7844V15.1621ZM9.11881 15.1621C9.64765 15.1621 10.0336 14.7178 10.0336 14.2227H9.03356C9.03356 14.2159 9.03663 14.2029 9.04882 14.19C9.06119 14.177 9.08591 14.1621 9.11881 14.1621V15.1621ZM10.0336 14.2227V13.3577H9.03356V14.2227H10.0336ZM9.84924 13.7454C10.4201 13.2807 11.7827 12.1423 13.0804 10.825C13.7291 10.1666 14.3692 9.45583 14.8878 8.75602C15.4001 8.06468 15.8226 7.34632 15.9944 6.67571L15.0256 6.42765C14.9022 6.90976 14.5713 7.50349 14.0844 8.16062C13.6036 8.80929 12.9984 9.48338 12.3681 10.1232C11.1077 11.4025 9.77732 12.5145 9.21788 12.9699L9.84924 13.7454ZM15.9942 6.67656C16.4082 5.07109 15.4212 3.81344 14.3748 2.97791C13.3115 2.12892 12.0291 1.57897 11.4614 1.35845L11.0993 2.29061C11.6376 2.49966 12.8072 3.00588 13.7508 3.75936C14.7114 4.52632 15.2862 5.41746 15.0258 6.4268L15.9942 6.67656ZM11.779 1.86176C11.8116 1.42462 11.5792 0.946269 11.0903 0.779784L10.768 1.72641C10.7684 1.72657 10.7677 1.7263 10.7672 1.72587C10.767 1.72567 10.7687 1.72699 10.7712 1.73126C10.7768 1.74071 10.7838 1.76029 10.7817 1.78731L11.779 1.86176ZM11.0923 0.780463L10.6813 0.63859L10.355 1.58386L10.766 1.72573L11.0923 0.780463ZM10.6809 0.638476C10.1156 0.44379 9.54761 0.783257 9.37971 1.31813L10.3338 1.61762C10.3409 1.59501 10.3523 1.58687 10.3563 1.58473C10.3584 1.58355 10.3589 1.58382 10.3575 1.58394C10.3557 1.58411 10.3545 1.58369 10.3553 1.58397L10.6809 0.638476ZM9.37914 1.31997L9.13627 2.10421L10.0915 2.40004L10.3344 1.61579L9.37914 1.31997ZM9.13626 2.10425C8.9728 2.63225 9.23862 3.23801 9.79324 3.42378L10.1108 2.47556C10.1104 2.47541 10.1092 2.47503 10.1068 2.47285C10.1041 2.47035 10.0998 2.46536 10.0958 2.45722C10.0875 2.43999 10.0856 2.41915 10.0915 2.39999L9.13626 2.10425ZM9.79021 3.42276L10.205 3.56463L10.5286 2.61846L10.1139 2.47658L9.79021 3.42276ZM10.2047 3.56452C10.5191 3.67232 10.8252 3.60318 11.0543 3.46247L10.5311 2.61027C10.5203 2.61695 10.5148 2.6175 10.5163 2.61729C10.5171 2.61716 10.5192 2.61697 10.5221 2.61722C10.5251 2.61749 10.5276 2.6181 10.5289 2.61856L10.2047 3.56452ZM10.6159 3.50405C11.278 3.75438 12.1944 4.20504 12.8938 4.73492C13.2446 5.00071 13.515 5.26722 13.6773 5.51616C13.8377 5.76236 13.8637 5.94354 13.8281 6.08288L14.7969 6.33082C14.9256 5.82779 14.7671 5.35699 14.5151 4.97018C14.2648 4.5861 13.8946 4.23856 13.4977 3.93785C12.7016 3.33471 11.6937 2.8425 10.9696 2.56868L10.6159 3.50405ZM13.8283 6.08199C13.7433 6.41173 13.4813 6.87271 13.0575 7.42879C12.6432 7.9725 12.109 8.56277 11.5334 9.14573C10.3825 10.3112 9.09641 11.4171 8.35004 12.016L8.97589 12.7959C9.74465 12.179 11.0609 11.0474 12.2449 9.84834C12.8367 9.24902 13.403 8.62523 13.8529 8.03494C14.2933 7.45702 14.6593 6.86404 14.7966 6.33171L13.8283 6.08199ZM8.66297 11.9059H7.89513V12.9059H8.66297V11.9059ZM8.2086 12.0164C7.46269 11.4162 6.17644 10.3102 5.02563 9.14495C4.44998 8.56209 3.91582 7.97203 3.50161 7.42852C3.07793 6.87259 2.81638 6.41192 2.73178 6.08248L1.76321 6.33122C1.9 6.86386 2.26593 7.45689 2.70625 8.03466C3.15603 8.62484 3.72237 9.24846 4.31413 9.84764C5.49813 11.0465 6.81431 12.178 7.58166 12.7955L8.2086 12.0164ZM2.73173 6.08228C2.69635 5.94476 2.72125 5.76635 2.87745 5.52377C3.03558 5.27819 3.3001 5.01459 3.64495 4.75071C4.33242 4.22467 5.23739 3.774 5.90285 3.51646L5.54192 2.58387C4.81743 2.86426 3.82148 3.35646 3.03726 3.95654C2.64627 4.25572 2.28225 4.601 2.03667 4.98239C1.78915 5.3668 1.63517 5.83347 1.76326 6.33141L2.73173 6.08228ZM5.39724 3.43C5.62345 3.62364 5.96388 3.75463 6.33371 3.64318L6.04518 2.68571C6.0487 2.68465 6.05367 2.68378 6.05918 2.68374C6.0645 2.6837 6.06809 2.68445 6.06939 2.68479C6.07052 2.6851 6.06892 2.68482 6.06485 2.6826C6.06073 2.68036 6.05473 2.67648 6.04754 2.67032L5.39724 3.43ZM6.32691 3.64518L6.74726 3.52498L6.47233 2.56352L6.05198 2.68372L6.32691 3.64518ZM6.74916 3.52444C7.30707 3.36251 7.60043 2.77511 7.45736 2.23615L6.49084 2.49273C6.49659 2.51441 6.49301 2.5339 6.48538 2.5481C6.47779 2.56222 6.47069 2.56399 6.47043 2.56407L6.74916 3.52444ZM7.45823 2.23946L7.25272 1.44339L6.28446 1.69335L6.48997 2.48942L7.45823 2.23946ZM7.25185 1.44008C7.10802 0.898289 6.55587 0.532736 5.98057 0.702635L6.2638 1.66169C6.26525 1.66126 6.26441 1.66166 6.26269 1.66143C6.26143 1.66125 6.26197 1.66104 6.26409 1.66231C6.26799 1.66465 6.27916 1.67342 6.28533 1.69666L7.25185 1.44008ZM5.98681 0.700837L5.56646 0.819065L5.83721 1.78171L6.25757 1.66349L5.98681 0.700837ZM5.56255 0.820181C5.1031 0.953446 4.8465 1.3691 4.82339 1.77651L5.82179 1.83315C5.82309 1.81022 5.83073 1.79378 5.83675 1.78554C5.83948 1.7818 5.84128 1.7805 5.84139 1.78042C5.84146 1.78037 5.84135 1.78045 5.8411 1.78058C5.84084 1.7807 5.84078 1.7807 5.84112 1.7806L5.56255 0.820181ZM5.14439 1.33766C4.61296 1.54038 3.31606 2.08389 2.23009 2.93584C1.16327 3.77277 0.138521 5.04451 0.558259 6.67624L1.52673 6.42712C1.2627 5.4007 1.86143 4.49606 2.84732 3.72262C3.81406 2.96421 4.99909 2.46337 5.50079 2.27199L5.14439 1.33766ZM0.558282 6.67633C0.724721 7.32287 1.124 8.01302 1.6103 8.67932C2.10226 9.35338 2.71045 10.0393 3.33329 10.6802C4.57929 11.9624 5.91357 13.0946 6.56866 13.6335L7.20392 12.8612C6.56059 12.332 5.25882 11.2268 4.05044 9.98331C3.44609 9.36142 2.87252 8.71248 2.41805 8.08979C1.95791 7.45933 1.64611 6.89084 1.52671 6.42703L0.558282 6.67633ZM6.38629 13.2473V14.2227H7.38629V13.2473H6.38629ZM6.38629 14.2227C6.38629 14.7162 6.76891 15.1621 7.30103 15.1621V14.1621C7.33227 14.1621 7.35748 14.1764 7.37087 14.1906C7.38375 14.2042 7.38629 14.2173 7.38629 14.2227H6.38629ZM7.30103 15.1621H7.51775V14.1621H7.30103V15.1621ZM7.0243 14.5815C6.83012 15.7693 6.62283 17.5602 6.75963 19.2835C6.89424 20.9791 7.37339 22.7582 8.69449 23.7446L9.2928 22.9434C8.33654 22.2293 7.88625 20.8389 7.7565 19.2044C7.62895 17.5976 7.82239 15.8978 8.0112 14.7428L7.0243 14.5815ZM8.69226 23.7429C9.34147 24.2334 10.1042 24.4667 10.9571 24.4667V23.4667C10.2969 23.4667 9.7518 23.2901 9.29502 22.945L8.69226 23.7429ZM10.9571 24.4667C12.5463 24.4667 14.4524 23.6429 16.6812 22.1215L16.1174 21.2955C13.9297 22.7889 12.2339 23.4667 10.9571 23.4667V24.4667ZM16.6814 22.1213C19.4336 20.2401 21.2418 19.4859 22.3862 19.2245C23.5209 18.9653 23.9692 19.1966 24.0574 19.2517L24.5874 18.4037C24.2216 18.175 23.4873 17.9472 22.1635 18.2496C20.8493 18.5498 18.9229 19.3779 16.1171 21.2957L16.6814 22.1213ZM24.0588 19.2525C24.1986 19.3393 24.3196 19.5084 24.2889 19.926L25.2862 19.9993C25.334 19.349 25.1449 18.7496 24.586 18.4028L24.0588 19.2525ZM24.289 19.9254C24.244 20.5256 23.8447 21.3508 23.1571 21.8879L23.7727 22.6759C24.6693 21.9756 25.219 20.8973 25.2862 20L24.289 19.9254ZM23.869 21.9875C23.3188 21.2324 22.4421 20.7277 21.4472 20.7277V21.7277C22.0926 21.7277 22.6806 22.0545 23.0608 22.5764L23.869 21.9875ZM21.4472 20.7277C19.7426 20.7277 18.4064 22.1817 18.4064 23.9095H19.4064C19.4064 22.6816 20.3458 21.7277 21.4472 21.7277V20.7277ZM18.4064 23.9095C18.4064 25.6373 19.7426 27.0913 21.4472 27.0913V26.0913C20.3458 26.0913 19.4064 25.1374 19.4064 23.9095H18.4064ZM21.4472 27.0913C23.1514 27.0913 24.4899 25.6378 24.4899 23.9095H23.4899C23.4899 25.1369 22.5491 26.0913 21.4472 26.0913V27.0913ZM24.4899 23.9095C24.4899 23.7458 24.4737 23.5911 24.4557 23.4543L23.4642 23.5844C23.4799 23.7038 23.4899 23.8092 23.4899 23.9095H24.4899ZM24.2421 23.9322C25.4907 23.0788 26.4135 21.6027 26.5248 20.1021L25.5276 20.0281C25.4409 21.1956 24.701 22.4072 23.6778 23.1066L24.2421 23.9322ZM26.5248 20.1022C26.6125 18.9226 26.1633 17.862 25.2231 17.2729L24.6921 18.1203C25.2614 18.4771 25.5931 19.1466 25.5276 20.0281L26.5248 20.1022ZM21.4453 24.779C21.0321 24.779 20.6488 24.413 20.6488 23.9095H19.6488C19.6488 24.9115 20.4275 25.779 21.4453 25.779V24.779ZM20.6488 23.9095C20.6488 23.4075 21.0326 23.042 21.4453 23.042V22.042C20.4308 22.042 19.6488 22.9061 19.6488 23.9095H20.6488ZM21.4453 23.042C21.6756 23.042 21.8909 23.1541 22.0484 23.354L22.8338 22.735C22.513 22.3279 22.0221 22.042 21.4453 22.042V23.042ZM22.1137 23.4224C22.135 23.4409 22.1458 23.4506 22.1611 23.524C22.1721 23.5765 22.1779 23.6248 22.1925 23.7201C22.2057 23.8055 22.2239 23.9118 22.2568 24.0289L23.2195 23.7586C23.2029 23.6994 23.1919 23.6396 23.1809 23.5682C23.1715 23.5065 23.1583 23.407 23.14 23.3197C23.0969 23.1132 23.0087 22.8747 22.7685 22.6666L22.1137 23.4224ZM22.2614 24.0444L22.267 24.0622L23.2205 23.7608L23.2149 23.7431L22.2614 24.0444ZM22.2438 23.9127C22.245 24.4111 21.8624 24.779 21.4453 24.779V25.779C22.463 25.779 23.2462 24.9134 23.2437 23.9102L22.2438 23.9127Z" fill="white"/>
</svg>
