<svg id="Top" xmlns="http://www.w3.org/2000/svg" xmlns:xlink="http://www.w3.org/1999/xlink" width="264" height="280" viewBox="0 0 264 280">
  <defs>
    <clipPath id="clip-path">
      <rect id="Mask" width="264" height="280" fill="none"/>
    </clipPath>
    <clipPath id="clip-path-2">
      <path id="Hair" d="M0,247.946c13.605-7.962,20.808-58.938,21-90.453v-88.5a46.118,46.118,0,0,1,1.162-10.338A70.793,70.793,0,0,1,50,12.946c19.9-14.76,53.443-19.02,65.046-1.477,8.651-3.843,21.472-.341,30.953,8.477,9.565,9.415,17.2,30.2,12.658,47.2q.157,1.906.158,3.838V92.828h0A12.007,12.007,0,0,0,149,83.112v-.167c-6.037-21.536-23.771-31.42-34.571-41.223C97.534,60.618,44.822,60.687,27,97.946v10a12.064,12.064,0,0,0,10.209,11.867A56.185,56.185,0,0,0,69,165.557v.389c2.56,38.317-4.425,85.1-47.822,85.1A81.788,81.788,0,0,1,0,247.946Zm121-64h-4V165.557a56.187,56.187,0,0,0,31.792-45.744,11.97,11.97,0,0,0,10.024-9.759v1.363a100.46,100.46,0,0,0,10.962,45.523l26.949,52.708a38.412,38.412,0,0,1,3.644,10.781,37.243,37.243,0,0,1,.327,10.766,38.334,38.334,0,0,1-7.906,19.212l0,0A72.283,72.283,0,0,0,121,183.946Z" transform="translate(0 0.054)" fill="#272c2e"/>
    </clipPath>
    <clipPath id="clip-path-3">
      <path id="Beardness" d="M59.174,99c-4.533,0-8.669-1.007-10.795-2.629a45.091,45.091,0,0,1-5.108-2.23A107.123,107.123,0,0,0,32.1,89.521a107.819,107.819,0,0,1-10.683-4.39,35.137,35.137,0,0,1-9.38-6.544C7.994,74.54,5.121,69.026,3.249,61.731A124.681,124.681,0,0,1,.418,42.642q-.048-.512-.1-1.016C-.309,34.994.1,28.632.537,21.9l0-.031q.044-.684.088-1.37c.013-.206.037-.65.07-1.265C.953,14.472,1.73,0,2.609,0,4.907,9.446,6.4,19.182,7.837,28.6c.706,4.616,1.436,9.389,2.253,14.073.495,2.837,1.046,5.742,1.686,8.879.028.139.057.366.09.628.118.94.3,2.36.771,2.587a1.177,1.177,0,0,0,.512.11c1.672,0,4.306-2.959,5.572-4.382.222-.249.413-.464.549-.607l.286-.3A49.383,49.383,0,0,1,27.4,42.437,43.749,43.749,0,0,1,48.53,35.118c.545-.043,1.112-.064,1.684-.064A17.611,17.611,0,0,1,59,37.111a17.607,17.607,0,0,1,8.785-2.057c.573,0,1.139.022,1.684.064A43.749,43.749,0,0,1,90.6,42.437a49.384,49.384,0,0,1,7.844,7.147l.286.3c.136.143.327.357.547.605,1.268,1.424,3.9,4.384,5.574,4.384a1.177,1.177,0,0,0,.512-.11c.474-.226.653-1.646.771-2.586.033-.263.062-.49.09-.629.64-3.137,1.191-6.041,1.686-8.879.817-4.683,1.547-9.456,2.253-14.072,1.44-9.417,2.93-19.153,5.228-28.6.879,0,1.656,14.472,1.912,19.227.033.616.057,1.061.07,1.268q.045.7.09,1.4c.435,6.736.846,13.1.216,19.729q-.048.5-.1,1.016a124.68,124.68,0,0,1-2.832,19.088c-1.872,7.3-4.745,12.809-8.784,16.856A35.128,35.128,0,0,1,96.59,85.13a107.773,107.773,0,0,1-10.68,4.388,107.02,107.02,0,0,0-11.181,4.623,46.9,46.9,0,0,1-4.475,2C68.259,97.877,63.91,99,59.174,99ZM47.449,49.23c-2.559,0-5.23.445-7.434,3.673A16.694,16.694,0,0,0,37.4,60.431a11.554,11.554,0,0,0,1.593,7.7,5.069,5.069,0,0,0,4.476,2.494,22.6,22.6,0,0,0,5.248-.983,46.56,46.56,0,0,1,10.79-1.8c.336-.011.676-.017,1.011-.017a34.817,34.817,0,0,1,9.157,1.32c.477.126.934.251,1.376.373a19.783,19.783,0,0,0,4.828.947,4.7,4.7,0,0,0,4.14-2.334,11.555,11.555,0,0,0,1.594-7.7A16.691,16.691,0,0,0,78.994,52.9c-2.2-3.228-4.876-3.673-7.435-3.673-.833,0-1.677.051-2.57.1l-.07,0c-.844.051-1.8.108-2.776.108a19.1,19.1,0,0,1-2.1-.106A12.646,12.646,0,0,1,59.5,48a12.648,12.648,0,0,1-4.542,1.34,19.109,19.109,0,0,1-2.1.106c-.974,0-1.932-.057-2.777-.108l-.07,0C49.125,49.28,48.281,49.23,47.449,49.23Z" transform="translate(25 26)" fill="#252e32"/>
    </clipPath>
  </defs>
  <rect id="Mask-2" data-name="Mask" width="264" height="280" fill="none"/>
  <g id="Top-2" data-name="Top" clip-path="url(#clip-path)">
    <g id="Top-3" data-name="Top" transform="translate(-1)">
      <g id="Hair-2" data-name="Hair" transform="translate(40 15)">
        <path id="Hair-3" data-name="Hair" d="M0,247.946c13.605-7.962,20.808-58.938,21-90.453v-88.5a46.118,46.118,0,0,1,1.162-10.338A70.793,70.793,0,0,1,50,12.946c19.9-14.76,53.443-19.02,65.046-1.477,8.651-3.843,21.472-.341,30.953,8.477,9.565,9.415,17.2,30.2,12.658,47.2q.157,1.906.158,3.838V92.828h0A12.007,12.007,0,0,0,149,83.112v-.167c-6.037-21.536-23.771-31.42-34.571-41.223C97.534,60.618,44.822,60.687,27,97.946v10a12.064,12.064,0,0,0,10.209,11.867A56.185,56.185,0,0,0,69,165.557v.389c2.56,38.317-4.425,85.1-47.822,85.1A81.788,81.788,0,0,1,0,247.946Zm121-64h-4V165.557a56.187,56.187,0,0,0,31.792-45.744,11.97,11.97,0,0,0,10.024-9.759v1.363a100.46,100.46,0,0,0,10.962,45.523l26.949,52.708a38.412,38.412,0,0,1,3.644,10.781,37.243,37.243,0,0,1,.327,10.766,38.334,38.334,0,0,1-7.906,19.212l0,0A72.283,72.283,0,0,0,121,183.946Z" transform="translate(0 0.054)" fill="#272c2e"/>
        <g id="Hair-4" data-name="Hair" clip-path="url(#clip-path-2)">
          <g id="_Hair_Color" data-name="â†³ ðŸ’ˆHair Color" transform="translate(-39 -15)">
            <rect id="Color" width="264" height="280" fill="#4a312c"/>
          </g>
        </g>
      </g>
      <path id="Shadow" d="M.017,56.193h0a54.168,54.168,0,0,1,10.308-14.6A69.921,69.921,0,0,1,24,30.942C33.91,24.91,44.855,20.821,55.44,16.867,68.5,11.99,80.829,7.383,87.43,0c2.233,2.027,4.754,4.05,7.423,6.193,5,4.013,10.667,8.562,15.57,14.14a52.721,52.721,0,0,1,11.541,20.761c-4.578-14.028-15.749-21.206-25.6-27.54-3.229-2.075-6.279-4.035-8.93-6.123-3.015,2.927-7.3,5.5-13.475,8.1C68.447,17.853,62.129,19.9,55.44,22.07l-.005,0C34.551,28.841,10.882,36.515.017,56.193Z" transform="translate(67 56.777)" fill="rgba(0,0,0,0.16)"/>
      <g id="Facial_Hair" data-name="Facial Hair" transform="translate(49 72)">
        <g id="Gruppe_12" data-name="Gruppe 12">
          <path id="Beardness-2" data-name="Beardness" d="M59.174,99c-4.533,0-8.669-1.007-10.795-2.629a45.091,45.091,0,0,1-5.108-2.23A107.123,107.123,0,0,0,32.1,89.521a107.819,107.819,0,0,1-10.683-4.39,35.137,35.137,0,0,1-9.38-6.544C7.994,74.54,5.121,69.026,3.249,61.731A124.681,124.681,0,0,1,.418,42.642q-.048-.512-.1-1.016C-.309,34.994.1,28.632.537,21.9l0-.031q.044-.684.088-1.37c.013-.206.037-.65.07-1.265C.953,14.472,1.73,0,2.609,0,4.907,9.446,6.4,19.182,7.837,28.6c.706,4.616,1.436,9.389,2.253,14.073.495,2.837,1.046,5.742,1.686,8.879.028.139.057.366.09.628.118.94.3,2.36.771,2.587a1.177,1.177,0,0,0,.512.11c1.672,0,4.306-2.959,5.572-4.382.222-.249.413-.464.549-.607l.286-.3A49.383,49.383,0,0,1,27.4,42.437,43.749,43.749,0,0,1,48.53,35.118c.545-.043,1.112-.064,1.684-.064A17.611,17.611,0,0,1,59,37.111a17.607,17.607,0,0,1,8.785-2.057c.573,0,1.139.022,1.684.064A43.749,43.749,0,0,1,90.6,42.437a49.384,49.384,0,0,1,7.844,7.147l.286.3c.136.143.327.357.547.605,1.268,1.424,3.9,4.384,5.574,4.384a1.177,1.177,0,0,0,.512-.11c.474-.226.653-1.646.771-2.586.033-.263.062-.49.09-.629.64-3.137,1.191-6.041,1.686-8.879.817-4.683,1.547-9.456,2.253-14.072,1.44-9.417,2.93-19.153,5.228-28.6.879,0,1.656,14.472,1.912,19.227.033.616.057,1.061.07,1.268q.045.7.09,1.4c.435,6.736.846,13.1.216,19.729q-.048.5-.1,1.016a124.68,124.68,0,0,1-2.832,19.088c-1.872,7.3-4.745,12.809-8.784,16.856A35.128,35.128,0,0,1,96.59,85.13a107.773,107.773,0,0,1-10.68,4.388,107.02,107.02,0,0,0-11.181,4.623,46.9,46.9,0,0,1-4.475,2C68.259,97.877,63.91,99,59.174,99ZM47.449,49.23c-2.559,0-5.23.445-7.434,3.673A16.694,16.694,0,0,0,37.4,60.431a11.554,11.554,0,0,0,1.593,7.7,5.069,5.069,0,0,0,4.476,2.494,22.6,22.6,0,0,0,5.248-.983,46.56,46.56,0,0,1,10.79-1.8c.336-.011.676-.017,1.011-.017a34.817,34.817,0,0,1,9.157,1.32c.477.126.934.251,1.376.373a19.783,19.783,0,0,0,4.828.947,4.7,4.7,0,0,0,4.14-2.334,11.555,11.555,0,0,0,1.594-7.7A16.691,16.691,0,0,0,78.994,52.9c-2.2-3.228-4.876-3.673-7.435-3.673-.833,0-1.677.051-2.57.1l-.07,0c-.844.051-1.8.108-2.776.108a19.1,19.1,0,0,1-2.1-.106A12.646,12.646,0,0,1,59.5,48a12.648,12.648,0,0,1-4.542,1.34,19.109,19.109,0,0,1-2.1.106c-.974,0-1.932-.057-2.777-.108l-.07,0C49.125,49.28,48.281,49.23,47.449,49.23Z" transform="translate(25 26)" fill="#252e32"/>
          <g id="Gruppe_maskieren_12" data-name="Gruppe maskieren 12" clip-path="url(#clip-path-3)">
            <g id="_Facial_Hair_Color" data-name="â†³ âœ‚ï¸ Facial Hair Color">
              <rect id="Color-2" data-name="Color" width="168" height="152" fill="#724133"/>
            </g>
          </g>
        </g>
      </g>
      <g id="_Accessory" data-name="â†³ ðŸ‘“ Accessory" transform="translate(62 85)">
        <g id="Wayfarers" transform="translate(6 7)">
          <path id="Left" d="M25,41H22.242C8.315,41,0,33.337,0,20.5,0,10.127,1.817,0,23.53,0h2.94C48.183,0,50,10.127,50,20.5,50,32.57,39.72,41,25,41ZM23.386,6C4,6,4,12.841,4,21.5,4,28.572,7.117,37,21.971,37H25c12.364,0,21-6.373,21-15.5C46,12.841,46,6,26.615,6Z" transform="translate(9)" fill="#252c2f"/>
          <path id="Right" d="M25,41H22.242C8.315,41,0,33.337,0,20.5,0,10.127,1.817,0,23.53,0h2.94C48.183,0,50,10.127,50,20.5,50,32.57,39.72,41,25,41ZM23.386,6C4,6,4,12.841,4,21.5,4,28.572,7.117,37,21.971,37H25c12.364,0,21-6.373,21-15.5C46,12.841,46,6,26.615,6Z" transform="translate(71)" fill="#252c2f"/>
          <path id="Stuff" d="M2.955,5.772C3.646,5.1,11.21,0,32.5,0,50.351,0,54.13,1.853,59.85,4.652l.419.207a17.013,17.013,0,0,0,4.81.907A17,17,0,0,0,69.642,4.9C76.17,1.722,82.561,0,97.5,0c21.29,0,28.854,5.1,29.545,5.772A2.918,2.918,0,0,1,130,8.657v2.886a2.918,2.918,0,0,1-2.955,2.886s-6.9,0-6.9,2.886-1.962-4.176-1.962-5.772V8.732A52.781,52.781,0,0,0,97.5,4.786c-11.842,0-17.739,2.1-22.8,4.185l.057.136,0,1.986-2.217,5.35L69.8,15.361a13.034,13.034,0,0,0-1.5-.451,13.87,13.87,0,0,0-5.992-.276,7.915,7.915,0,0,0-1.891.632L57.77,16.558,55.127,11.4,55.244,9.1l.081-.195C50.962,6.874,46.939,4.786,32.5,4.786A52.791,52.791,0,0,0,11.818,8.731v2.812c0,1.6-2.955,8.657-2.955,5.772s-5.909-2.886-5.909-2.886A2.92,2.92,0,0,1,0,11.543V8.657A2.92,2.92,0,0,1,2.955,5.772Z" fill="#252c2f"/>
        </g>
      </g>
    </g>
  </g>
</svg>
